<svg id="visual" viewBox="0 0 900 600" width="900" height="600" xmlns="http://www.w3.org/2000/svg" xmlns:xlink="http://www.w3.org/1999/xlink" version="1.1"><rect x="0" y="0" width="900" height="600" fill="#001220"></rect><path d="M0 306L21.5 316.8C43 327.7 86 349.3 128.8 357.7C171.7 366 214.3 361 257.2 361C300 361 343 366 385.8 365.8C428.7 365.7 471.3 360.3 514.2 365.5C557 370.7 600 386.3 642.8 389.5C685.7 392.7 728.3 383.3 771.2 372.8C814 362.3 857 350.7 878.5 344.8L900 339L900 601L878.5 601C857 601 814 601 771.2 601C728.3 601 685.7 601 642.8 601C600 601 557 601 514.2 601C471.3 601 428.7 601 385.8 601C343 601 300 601 257.2 601C214.3 601 171.7 601 128.8 601C86 601 43 601 21.5 601L0 601Z" fill="#df059c"></path><path d="M0 432L21.5 429.5C43 427 86 422 128.8 420.2C171.7 418.3 214.3 419.7 257.2 409.3C300 399 343 377 385.8 372C428.7 367 471.3 379 514.2 380.3C557 381.7 600 372.3 642.8 378.3C685.7 384.3 728.3 405.7 771.2 418C814 430.3 857 433.7 878.5 435.3L900 437L900 601L878.5 601C857 601 814 601 771.2 601C728.3 601 685.7 601 642.8 601C600 601 557 601 514.2 601C471.3 601 428.7 601 385.8 601C343 601 300 601 257.2 601C214.3 601 171.7 601 128.8 601C86 601 43 601 21.5 601L0 601Z" fill="#ca23a9"></path><path d="M0 418L21.5 415.8C43 413.7 86 409.3 128.8 416.5C171.7 423.7 214.3 442.3 257.2 449.5C300 456.7 343 452.3 385.8 447C428.7 441.7 471.3 435.3 514.2 428C557 420.7 600 412.3 642.8 419C685.7 425.7 728.3 447.3 771.2 448C814 448.7 857 428.3 878.5 418.2L900 408L900 601L878.5 601C857 601 814 601 771.2 601C728.3 601 685.7 601 642.8 601C600 601 557 601 514.2 601C471.3 601 428.7 601 385.8 601C343 601 300 601 257.2 601C214.3 601 171.7 601 128.8 601C86 601 43 601 21.5 601L0 601Z" fill="#b234b4"></path><path d="M0 482L21.5 481.5C43 481 86 480 128.8 475.8C171.7 471.7 214.3 464.3 257.2 468.5C300 472.7 343 488.3 385.8 495.8C428.7 503.3 471.3 502.7 514.2 499.2C557 495.7 600 489.3 642.8 488.7C685.7 488 728.3 493 771.2 491.3C814 489.7 857 481.3 878.5 477.2L900 473L900 601L878.5 601C857 601 814 601 771.2 601C728.3 601 685.7 601 642.8 601C600 601 557 601 514.2 601C471.3 601 428.7 601 385.8 601C343 601 300 601 257.2 601C214.3 601 171.7 601 128.8 601C86 601 43 601 21.5 601L0 601Z" fill="#9640bc"></path><path d="M0 523L21.5 526.5C43 530 86 537 128.8 536.2C171.7 535.3 214.3 526.7 257.2 521.2C300 515.7 343 513.3 385.8 521C428.7 528.7 471.3 546.3 514.2 554.5C557 562.7 600 561.3 642.8 554.2C685.7 547 728.3 534 771.2 533.3C814 532.7 857 544.3 878.5 550.2L900 556L900 601L878.5 601C857 601 814 601 771.2 601C728.3 601 685.7 601 642.8 601C600 601 557 601 514.2 601C471.3 601 428.7 601 385.8 601C343 601 300 601 257.2 601C214.3 601 171.7 601 128.8 601C86 601 43 601 21.5 601L0 601Z" fill="#7749c1"></path></svg>