<svg id="visual" viewBox="0 0 900 600" width="900" height="600" xmlns="http://www.w3.org/2000/svg" xmlns:xlink="http://www.w3.org/1999/xlink" version="1.1"><rect x="0" y="0" width="900" height="600" fill="#151C62"></rect><path d="M0 404L21.5 411.2C43 418.3 86 432.7 128.8 438.2C171.7 443.7 214.3 440.3 257.2 440.3C300 440.3 343 443.7 385.8 443.5C428.7 443.3 471.3 439.7 514.2 443.2C557 446.7 600 457.3 642.8 459.5C685.7 461.7 728.3 455.3 771.2 448.3C814 441.3 857 433.7 878.5 429.8L900 426L900 601L878.5 601C857 601 814 601 771.2 601C728.3 601 685.7 601 642.8 601C600 601 557 601 514.2 601C471.3 601 428.7 601 385.8 601C343 601 300 601 257.2 601C214.3 601 171.7 601 128.8 601C86 601 43 601 21.5 601L0 601Z" fill="#df059c"></path><path d="M0 488L21.5 486.3C43 484.7 86 481.3 128.8 480C171.7 478.7 214.3 479.3 257.2 472.3C300 465.3 343 450.7 385.8 447.3C428.7 444 471.3 452 514.2 453C557 454 600 448 642.8 452C685.7 456 728.3 470 771.2 478.2C814 486.3 857 488.7 878.5 489.8L900 491L900 601L878.5 601C857 601 814 601 771.2 601C728.3 601 685.7 601 642.8 601C600 601 557 601 514.2 601C471.3 601 428.7 601 385.8 601C343 601 300 601 257.2 601C214.3 601 171.7 601 128.8 601C86 601 43 601 21.5 601L0 601Z" fill="#ca23a9"></path><path d="M0 478L21.5 476.5C43 475 86 472 128.8 476.8C171.7 481.7 214.3 494.3 257.2 499.2C300 504 343 501 385.8 497.3C428.7 493.7 471.3 489.3 514.2 484.5C557 479.7 600 474.3 642.8 478.8C685.7 483.3 728.3 497.7 771.2 498.2C814 498.7 857 485.3 878.5 478.7L900 472L900 601L878.5 601C857 601 814 601 771.2 601C728.3 601 685.7 601 642.8 601C600 601 557 601 514.2 601C471.3 601 428.7 601 385.8 601C343 601 300 601 257.2 601C214.3 601 171.7 601 128.8 601C86 601 43 601 21.5 601L0 601Z" fill="#b234b4"></path><path d="M0 521L21.5 520.7C43 520.3 86 519.7 128.8 516.8C171.7 514 214.3 509 257.2 511.7C300 514.3 343 524.7 385.8 529.7C428.7 534.7 471.3 534.3 514.2 532.2C557 530 600 526 642.8 525.7C685.7 525.3 728.3 528.7 771.2 527.5C814 526.3 857 520.7 878.5 517.8L900 515L900 601L878.5 601C857 601 814 601 771.2 601C728.3 601 685.7 601 642.8 601C600 601 557 601 514.2 601C471.3 601 428.7 601 385.8 601C343 601 300 601 257.2 601C214.3 601 171.7 601 128.8 601C86 601 43 601 21.5 601L0 601Z" fill="#9640bc"></path><path d="M0 548L21.5 550.3C43 552.7 86 557.3 128.8 556.8C171.7 556.3 214.3 550.7 257.2 547C300 543.3 343 541.7 385.8 546.8C428.7 552 471.3 564 514.2 569.5C557 575 600 574 642.8 569.2C685.7 564.3 728.3 555.7 771.2 555.3C814 555 857 563 878.5 567L900 571L900 601L878.5 601C857 601 814 601 771.2 601C728.3 601 685.7 601 642.8 601C600 601 557 601 514.2 601C471.3 601 428.7 601 385.8 601C343 601 300 601 257.2 601C214.3 601 171.7 601 128.8 601C86 601 43 601 21.5 601L0 601Z" fill="#7749c1"></path></svg>