<svg width="1435" height="888" viewBox="0 0 1435 888" fill="none" xmlns="http://www.w3.org/2000/svg">
<g clip-path="url(#clip0_7_38)">
<path d="M0 259L21.8439 245.68C43.5283 232.36 87.2161 205.72 130.744 204.24C174.273 202.76 217.961 226.44 261.17 223.48C304.539 220.52 347.589 190.92 390.958 193.88C434.167 196.84 477.855 232.36 521.383 247.16C564.912 261.96 608.599 256.04 652.128 256.04C695.656 256.04 739.344 261.96 782.872 257.52C826.401 253.08 870.088 238.28 913.617 232.36C957.145 226.44 1000.83 229.4 1044.04 219.04C1087.41 208.68 1130.46 185 1173.83 198.32C1217.04 211.64 1260.73 261.96 1304.26 288.6C1347.78 315.24 1391.47 318.2 1413.16 319.68L1435 321.16V0H1413.16C1391.47 0 1347.78 0 1304.26 0C1260.73 0 1217.04 0 1173.83 0C1130.46 0 1087.41 0 1044.04 0C1000.83 0 957.145 0 913.617 0C870.088 0 826.401 0 782.872 0C739.344 0 695.656 0 652.128 0C608.599 0 564.912 0 521.383 0C477.855 0 434.167 0 390.958 0C347.589 0 304.539 0 261.17 0C217.961 0 174.273 0 130.744 0C87.2161 0 43.5283 0 21.8439 0H0V259Z" fill="#2A497A"/>
<path d="M0 481L21.8439 491.36C43.5283 501.72 87.2161 522.44 130.744 525.4C174.273 528.36 217.961 513.56 261.17 519.48C304.539 525.4 347.589 552.04 390.958 546.12C434.167 540.2 477.855 501.72 521.383 478.04C564.912 454.36 608.599 445.48 652.128 460.28C695.656 475.08 739.344 513.56 782.872 535.76C826.401 557.96 870.088 563.88 913.617 552.04C957.145 540.2 1000.83 510.6 1044.04 491.36C1087.41 472.12 1130.46 463.24 1173.83 473.6C1217.04 483.96 1260.73 513.56 1304.26 513.56C1347.78 513.56 1391.47 483.96 1413.16 469.16L1435 454.36V318.2L1413.16 316.72C1391.47 315.24 1347.78 312.28 1304.26 285.64C1260.73 259 1217.04 208.68 1173.83 195.36C1130.46 182.04 1087.41 205.72 1044.04 216.08C1000.83 226.44 957.145 223.48 913.617 229.4C870.088 235.32 826.401 250.12 782.872 254.56C739.344 259 695.656 253.08 652.128 253.08C608.599 253.08 564.912 259 521.383 244.2C477.855 229.4 434.167 193.88 390.958 190.92C347.589 187.96 304.539 217.56 261.17 220.52C217.961 223.48 174.273 199.8 130.744 201.28C87.2161 202.76 43.5283 229.4 21.8439 242.72L0 256.04V481Z" fill="#1D3863"/>
<path d="M0 605.32L21.8439 609.76C43.5283 614.2 87.2161 623.08 130.744 623.08C174.273 623.08 217.961 614.2 261.17 626.04C304.539 637.88 347.589 670.44 390.958 658.6C434.167 646.76 477.855 590.52 521.383 568.32C564.912 546.12 608.599 557.96 652.128 577.2C695.656 596.44 739.344 623.08 782.872 642.32C826.401 661.56 870.088 673.4 913.617 670.44C957.145 667.48 1000.83 649.72 1044.04 624.56C1087.41 599.4 1130.46 566.84 1173.83 565.36C1217.04 563.88 1260.73 593.48 1304.26 594.96C1347.78 596.44 1391.47 569.8 1413.16 556.48L1435 543.16V451.4L1413.16 466.2C1391.47 481 1347.78 510.6 1304.26 510.6C1260.73 510.6 1217.04 481 1173.83 470.64C1130.46 460.28 1087.41 469.16 1044.04 488.4C1000.83 507.64 957.145 537.24 913.617 549.08C870.088 560.92 826.401 555 782.872 532.8C739.344 510.6 695.656 472.12 652.128 457.32C608.599 442.52 564.912 451.4 521.383 475.08C477.855 498.76 434.167 537.24 390.958 543.16C347.589 549.08 304.539 522.44 261.17 516.52C217.961 510.6 174.273 525.4 130.744 522.44C87.2161 519.48 43.5283 498.76 21.8439 488.4L0 478.04V605.32Z" fill="#0F284C"/>
<path d="M0 720.76L21.8439 725.2C43.5283 729.64 87.2161 738.52 130.744 737.04C174.273 735.56 217.961 723.72 261.17 731.12C304.539 738.52 347.589 765.16 390.958 778.48C434.167 791.8 477.855 791.8 521.383 778.48C564.912 765.16 608.599 738.52 652.128 740C695.656 741.48 739.344 771.08 782.872 779.96C826.401 788.84 870.088 777 913.617 768.12C957.145 759.24 1000.83 753.32 1044.04 747.4C1087.41 741.48 1130.46 735.56 1173.83 737.04C1217.04 738.52 1260.73 747.4 1304.26 744.44C1347.78 741.48 1391.47 726.68 1413.16 719.28L1435 711.88V540.2L1413.16 553.52C1391.47 566.84 1347.78 593.48 1304.26 592C1260.73 590.52 1217.04 560.92 1173.83 562.4C1130.46 563.88 1087.41 596.44 1044.04 621.6C1000.83 646.76 957.145 664.52 913.617 667.48C870.088 670.44 826.401 658.6 782.872 639.36C739.344 620.12 695.656 593.48 652.128 574.24C608.599 555 564.912 543.16 521.383 565.36C477.855 587.56 434.167 643.8 390.958 655.64C347.589 667.48 304.539 634.92 261.17 623.08C217.961 611.24 174.273 620.12 130.744 620.12C87.2161 620.12 43.5283 611.24 21.8439 606.8L0 602.36V720.76Z" fill="#0E2442"/>
<path d="M0 889.48H21.8439C43.5283 889.48 87.2161 889.48 130.744 889.48C174.273 889.48 217.961 889.48 261.17 889.48C304.539 889.48 347.589 889.48 390.958 889.48C434.167 889.48 477.855 889.48 521.383 889.48C564.912 889.48 608.599 889.48 652.128 889.48C695.656 889.48 739.344 889.48 782.872 889.48C826.401 889.48 870.088 889.48 913.617 889.48C957.145 889.48 1000.83 889.48 1044.04 889.48C1087.41 889.48 1130.46 889.48 1173.83 889.48C1217.04 889.48 1260.73 889.48 1304.26 889.48C1347.78 889.48 1391.47 889.48 1413.16 889.48H1435V708.92L1413.16 716.32C1391.47 723.72 1347.78 738.52 1304.26 741.48C1260.73 744.44 1217.04 735.56 1173.83 734.08C1130.46 732.6 1087.41 738.52 1044.04 744.44C1000.83 750.36 957.145 756.28 913.617 765.16C870.088 774.04 826.401 785.88 782.872 777C739.344 768.12 695.656 738.52 652.128 737.04C608.599 735.56 564.912 762.2 521.383 775.52C477.855 788.84 434.167 788.84 390.958 775.52C347.589 762.2 304.539 735.56 261.17 728.16C217.961 720.76 174.273 732.6 130.744 734.08C87.2161 735.56 43.5283 726.68 21.8439 722.24L0 717.8V889.48Z" fill="#0D1F38"/>
</g>
<defs>
<clipPath id="clip0_7_38">
<rect width="1435" height="888" fill="white"/>
</clipPath>
</defs>
</svg>
